<svg xmlns="http://www.w3.org/2000/svg" viewBox="130 135 764 764"><path fill="#59C7FF" fill-rule="evenodd" d="M486 150 L538 150 C674 165 767 250 779 370 C784 425 814 465 855 505 C873 523 865 550 841 557 C819 563 806 579 819 598 C831 615 823 633 804 639 C823 655 818 678 796 684 C814 701 808 727 783 736 C761 744 742 742 724 741 C667 737 614 760 597 809 C587 837 586 866 586 894 L438 894 C438 866 437 837 427 809 C410 760 357 737 300 741 C282 742 263 744 241 736 C216 727 210 701 228 684 C206 678 201 655 220 639 C201 633 193 615 205 598 C218 579 205 563 183 557 C159 550 151 523 169 505 C210 465 240 425 245 370 C257 250 350 165 486 150 Z M452 470 A50 50 0 1 0 452 570 A50 50 0 1 0 452 470 Z M572 470 A50 50 0 1 0 572 570 A50 50 0 1 0 572 470 Z"/></svg>
